<svg width="26" height="20" viewBox="0 0 26 20" fill="none" xmlns="http://www.w3.org/2000/svg">
<path d="M12.6465 9.79785V13.7079" stroke="#4F39F6" stroke-width="2" stroke-linecap="round" stroke-linejoin="round"/>
<path d="M14.9747 11.7529H10.3164" stroke="#4F39F6" stroke-width="2" stroke-linecap="round" stroke-linejoin="round"/>
<path d="M17.3029 4.91004V2.95502C17.3029 2.43652 17.0575 1.93925 16.6207 1.57261C16.1839 1.20597 15.5915 1 14.9737 1H10.3155C9.69774 1 9.10531 1.20597 8.66852 1.57261C8.23172 1.93925 7.98633 2.43652 7.98633 2.95502V4.91004" stroke="#4F39F6" stroke-width="2" stroke-linecap="round" stroke-linejoin="round"/>
<path d="M19.6328 4.91016V18.5953" stroke="#4F39F6" stroke-width="2" stroke-linecap="round" stroke-linejoin="round"/>
<path d="M5.6582 4.91016V18.5953" stroke="#4F39F6" stroke-width="2" stroke-linecap="round" stroke-linejoin="round"/>
<path d="M21.9622 4.91016H3.32914C2.04279 4.91016 1 5.78545 1 6.86518V16.6403C1 17.72 2.04279 18.5953 3.32914 18.5953H21.9622C23.2486 18.5953 24.2914 17.72 24.2914 16.6403V6.86518C24.2914 5.78545 23.2486 4.91016 21.9622 4.91016Z" stroke="#4F39F6" stroke-width="2" stroke-linecap="round" stroke-linejoin="round"/>
</svg>
